<svg id="Calque_1" data-name="Calque 1" xmlns="http://www.w3.org/2000/svg" viewBox="0 0 628.71 68.74"><defs><style>.cls-1{fill:#fff;}</style></defs><path class="cls-1" d="M56.25-37.46l-6.78-.79L44.34-48.79l-.18-.37-.39-.17-3.56-1.53-1.78-.77L37.54-52l-.45-.19-.32-.16a7.5,7.5,0,0,1-2.25-2.54,28.72,28.72,0,0,0-2.32-3.47l-.35-.42-.55,0a8.59,8.59,0,0,0-2.26.58c-.37.14-.71.24-1,.33a21.84,21.84,0,0,1-.74-2.58A19.52,19.52,0,0,0,26-64.23l-.48-1-1,.5a4,4,0,0,0-1.21,1l-1.74-4.92-.77-2.16-1.18,1.94L14.3-60.06l-.17.27v.35c0,1.41.19,2.71.26,3.93-.9.24-1.89.38-2.93.59-.33.06-.67.14-1,.23l-.53.15-.51.17a12.41,12.41,0,0,0-1.95.92A44.69,44.69,0,0,0,2-49.32C1.05-51.56.23-54-.86-56.31l-.26-.56-.58-.07a29.88,29.88,0,0,0-3.9,0c0-.17,0-.34-.05-.53a10.94,10.94,0,0,0-.25-1.76L-6-59.67l-.35-.25-8.48-6c-.88-2.72-1.91-5.32-2.72-7.94l-.31-1-.95.22c-1.26.3-2.38.73-3.45,1-1.54-1.7-3-3.47-4.55-5.25l-2.49-2.92-1.28-1.44-.64-.7-.54-.66-.48-.72-.44-.76a17.65,17.65,0,0,1-.75-1.65c-.45-1.14-.82-2.36-1.19-3.6s-.75-2.52-1.21-3.8c-.23-.63-.5-1.27-.79-1.89a17.29,17.29,0,0,0-1-1.84l-1.06-1.73-.82,1.88L-44.59-86.9l-3.18.31-.74.07-.18.79c-.57,2.39-.83,4.73-1.3,6.93a31,31,0,0,1-3,1.06,24.51,24.51,0,0,0-3.75,1.38l-.49.24-.11.54-1.12,5.75-.22-.07-.73-.23a3.7,3.7,0,0,0-1-.17l-.77,0-.25.78-3.25,9.8a10.74,10.74,0,0,1-1.22.59c-.24.09-.48.2-.73.31l-.18-.59a18.35,18.35,0,0,0-.66-2l-.4-1-.93.33A8.92,8.92,0,0,0-70-61.5l-.1.06c-.39-.82-.78-1.7-1.25-2.59l-.37-.69-.74.13c-1.82.31-3.48.87-5.07,1.2-3.46-4.44-6.58-9.26-10.15-13.79l-1-1.27L-89.42-77l-2.66,5-.34.63-.32.56a5.27,5.27,0,0,1-.31.44.85.85,0,0,1-.15.15.48.48,0,0,1-.15,0,3,3,0,0,1-.49-.08c-.38-.09-.82-.22-1.25-.34l-.79-.22-.42.74-4.24,7.44a24.55,24.55,0,0,0-5.3,2.65,21.54,21.54,0,0,0-4.48,4c-1.47.12-3,.1-4.56.17-.42,0-.87,0-1.29.09h-.2a1.18,1.18,0,0,0-.6.25l-.17.16,0,.07-.06.1a.93.93,0,0,0-.1.2,2.54,2.54,0,0,0-.15.54c-.06.27-.09.51-.12.74-.12.93-.2,1.83-.28,2.72l-.24,2.65-.07.62c0,.1,0,.2,0,.18a2,2,0,0,1-.08.26l-.19.6v0l-.43.25-.54.36a10.22,10.22,0,0,1-1,.54c-.72.34-1.5.64-2.33,1l-.48.23-.12.56-.88,4-4.23,1.38-.53.17-.14.54h0c-.27,2.09,0,3.9-.18,5.79.76-1.44,1.26-3.09,1.94-4.44l.17-.05,6.09,2.86-1-5.75.74-3.39,7.6,7.1-3.05-9.67a1.75,1.75,0,0,0,.18-.26,2.7,2.7,0,0,0,.21-.49l.22-.67c0-.13.06-.15.12-.37a3.67,3.67,0,0,0,.08-.49l.09-.7.24-2.69c.08-.88.16-1.77.27-2.61a.59.59,0,0,1,0-.13h.12l6.36,10,.93-11.78a20,20,0,0,1,3.35-2.83,22.82,22.82,0,0,1,5.2-2.55l.39-.14.21-.37,4-7.05.32.08,2.34,7.76.34-8.06a3.63,3.63,0,0,0,.44-.43,7.33,7.33,0,0,0,.5-.71c.13-.23.26-.45.37-.66l.34-.61,1.41-2.63c-.32,2.33-.48,5.44-1.12,6.32.5.87,1.13,1.71,1.63,2.57-.88,1.73-1.77,3.89-2.64,5.62,1,3.56,2.39,7.54,3.36,11.1,1.12-2.11,2.35-4.61,3.46-6.72-.41-2.55-.61-5.41-1-8l3-3.32c1.1,1.52,2.21,3,3.38,4.52l.14.18-2.84,5,9-5.15c.29.64.6,1.3,1,2l.44.83.83-.3a6.64,6.64,0,0,0,1-.46v9.52l4.91-7.53A6.84,6.84,0,0,0-63.13-58l.31-.21.11-.35,3-8.9,4.24,17.66,8.11,5.53L-51.23-53l5.52,1.62L-56.47-68.43l1.13-5.78,7.4,4.45.83-12.69c.11-.64.23-1.28.36-1.9l3-.29.59-.06.26-.59,4.29-9.88c0,4.53.1,11.14,0,14.9,1.76,2,3.68,4.38,5.44,6.38-.43.44-.72,1.16-1.15,1.6.21,1,.7,2.1.91,3.14,1.8,1.7,3.72,3.58,5.53,5.27,3.19-.63,7.92-.28,11.58-.2l8.34,5.84c0,.29.08.59.11.94a9.08,9.08,0,0,0,.25,1.76l.19.76.72.1a22.81,22.81,0,0,0,3.52,0l-.14,15.83L2.07-46.5l.11-.08c2.28-1.64,4.16-3.6,6.3-4.82a11.52,11.52,0,0,1,1.63-.77l.43-.14.42-.12c.29-.08.59-.14.9-.2a26.93,26.93,0,0,0,4-.91l.74-.26v-.84c0-1.63-.25-3.11-.28-4.48l4-6.55,0,.07c-.45,4-1,9.61-1.42,13.24,1.79,2.35,3.55,4.9,5.34,7.25,1.41-3.17,2.83-7.22,4.24-10.45.43-.12.84-.26,1.21-.39a11.64,11.64,0,0,1,1.12-.35c-.42,3.29-1.4,7.4-1.07,10.57,1.78-1.68,3.59-3.32,5.38-5a5.45,5.45,0,0,0,.6.44l.55.26.44.2.89.38,1.79.76,2.7,1.17c-1,1.19-2.06,2.39-3.1,3.58l6.79,3.25,2,4.08.26.54.58.07,6.85.79L57-31.79l.29-4.74.05-.81-1-.12Zm-172.44-16h0ZM-23-71l0,0,.58-.13c1.13-.27,2.14-.65,3.11-.94.73,2.2,1.53,4.33,2.23,6.46-1.9-1.3-4.24-2.83-5.38-3.72C-22.67-69.88-22.83-70.45-23-71Z" transform="translate(129.37 100.51)"/><path class="cls-1" d="M-18.44-52.1c-3.13-.44-10.4-4.91-13.14-5.84l-9.91,10.53L-31-55c.77,2.22,2,4.9,1.63,5.92,1.06.59,2.28,1.1,3.34,1.69-.24,2-.27,4.32-.52,6.27,3,2.87,6.81,6,9.83,8.82.35-2.41.65-5.22,1-7.63-1.8-2.18-3.48-4.72-5.28-6.9Q-19.74-49.46-18.44-52.1Z" transform="translate(129.37 100.51)"/><polygon class="cls-1" points="41.62 60.66 49.98 52.33 54.41 68.74 54.41 60.4 56.63 62.53 58.95 57.48 48.83 50.13 41.62 60.66"/><polygon class="cls-1" points="142.21 55.39 137.57 62.72 142.95 57.59 150.12 67.11 151.58 61.65 146.95 59.23 142.21 55.39"/><path class="cls-1" d="M-35.75-63l-3.82-.3-3.21-13.18,2,15.3S-35.81-63-35.75-63Z" transform="translate(129.37 100.51)"/><polygon class="cls-1" points="31.9 53.26 30 53.26 28.24 45.45 28.78 55.58 36.3 58.02 33.26 55.88 31.9 53.26"/><path class="cls-1" d="M78.09-33.94a16.16,16.16,0,0,1-5.26-.82,12.6,12.6,0,0,1-4.2-2.33,10.38,10.38,0,0,1-2.71-3.51,1.33,1.33,0,0,1,0-1.31A1.76,1.76,0,0,1,67-42.73a1.63,1.63,0,0,1,1.22.13,2.07,2.07,0,0,1,.91.94,7.28,7.28,0,0,0,2,2.3,9.15,9.15,0,0,0,3.06,1.58,13.05,13.05,0,0,0,3.91.56A10.48,10.48,0,0,0,82.26-38a6.51,6.51,0,0,0,2.87-2.27,6.15,6.15,0,0,0,1-3.61,6.31,6.31,0,0,0-2-4.67q-2-2-6.26-2.48a14.58,14.58,0,0,1-8.13-3.23,8.19,8.19,0,0,1-2.93-6.37,7.76,7.76,0,0,1,1.45-4.7,9.17,9.17,0,0,1,4-3.09,14.56,14.56,0,0,1,5.82-1.09,12.1,12.1,0,0,1,4.44.78,12.38,12.38,0,0,1,3.49,2,11.88,11.88,0,0,1,2.42,2.78,1.76,1.76,0,0,1,.28,1.37,1.5,1.5,0,0,1-.77,1,1.79,1.79,0,0,1-1.36.09,1.81,1.81,0,0,1-1-.84,9.63,9.63,0,0,0-1.67-1.93,7.36,7.36,0,0,0-2.42-1.45A10.52,10.52,0,0,0,78-66.22a9.72,9.72,0,0,0-5.64,1.48,5,5,0,0,0-2.13,4.33,5.12,5.12,0,0,0,.8,2.78,6.47,6.47,0,0,0,2.64,2.18,16.77,16.77,0,0,0,5,1.35c3.7.53,6.44,1.67,8.23,3.4a9,9,0,0,1,2.69,6.77,10,10,0,0,1-.87,4.26,8.44,8.44,0,0,1-2.44,3.13A11.25,11.25,0,0,1,82.6-34.6,15,15,0,0,1,78.09-33.94Z" transform="translate(129.37 100.51)"/><path class="cls-1" d="M94.83-54.81a1.57,1.57,0,0,1-1.11-.42,1.37,1.37,0,0,1-.44-1.05,1.4,1.4,0,0,1,.44-1.08,1.57,1.57,0,0,1,1.11-.43h11.33a1.53,1.53,0,0,1,1.1.43,1.41,1.41,0,0,1,.45,1.08,1.38,1.38,0,0,1-.45,1.05,1.52,1.52,0,0,1-1.1.42Zm11.06,20.43a8,8,0,0,1-4.2-1.11,8,8,0,0,1-2.91-3,9,9,0,0,1-1.06-4.42V-64.67a1.73,1.73,0,0,1,.46-1.24,1.6,1.6,0,0,1,1.22-.49,1.68,1.68,0,0,1,1.25.49,1.71,1.71,0,0,1,.49,1.24v21.72a5.26,5.26,0,0,0,1.33,3.71,4.46,4.46,0,0,0,3.42,1.44h1.2a1.46,1.46,0,0,1,1.15.49,1.75,1.75,0,0,1,.45,1.24,1.54,1.54,0,0,1-.54,1.22,2,2,0,0,1-1.33.47Z" transform="translate(129.37 100.51)"/><path class="cls-1" d="M124.94-34.16a11.7,11.7,0,0,1-6.13-1.62,11.72,11.72,0,0,1-4.28-4.42A12.54,12.54,0,0,1,113-46.5a12.48,12.48,0,0,1,1.62-6.36A11.91,11.91,0,0,1,119-57.27a12.22,12.22,0,0,1,6.3-1.63,12.16,12.16,0,0,1,6.29,1.63A12,12,0,0,1,136-52.86a12.72,12.72,0,0,1,1.67,6.36l-1.38,1.06a11.13,11.13,0,0,1-1.49,5.75,10.88,10.88,0,0,1-4,4A11.2,11.2,0,0,1,124.94-34.16Zm.35-3.11a8.84,8.84,0,0,0,4.6-1.2,8.7,8.7,0,0,0,3.2-3.31,9.56,9.56,0,0,0,1.18-4.72,9.57,9.57,0,0,0-1.18-4.76,9,9,0,0,0-3.2-3.31,8.76,8.76,0,0,0-4.6-1.22,8.78,8.78,0,0,0-4.57,1.22,9.1,9.1,0,0,0-3.24,3.31,9.38,9.38,0,0,0-1.2,4.76,9.36,9.36,0,0,0,1.2,4.72,8.8,8.8,0,0,0,3.24,3.31A8.86,8.86,0,0,0,125.29-37.27Zm10.62,2.89a1.75,1.75,0,0,1-1.25-.47,1.63,1.63,0,0,1-.49-1.22v-7.59l.85-3.51,2.62.67v10.43a1.6,1.6,0,0,1-.49,1.22A1.72,1.72,0,0,1,135.91-34.38Z" transform="translate(129.37 100.51)"/><path class="cls-1" d="M142.75-54.81a1.53,1.53,0,0,1-1.11-.42,1.38,1.38,0,0,1-.45-1.05,1.41,1.41,0,0,1,.45-1.08,1.54,1.54,0,0,1,1.11-.43h11.32a1.57,1.57,0,0,1,1.11.43,1.41,1.41,0,0,1,.45,1.08,1.38,1.38,0,0,1-.45,1.05,1.57,1.57,0,0,1-1.11.42ZM153.8-34.38a8,8,0,0,1-4.19-1.11,8,8,0,0,1-2.91-3,9,9,0,0,1-1.07-4.42V-64.67a1.74,1.74,0,0,1,.47-1.24,1.6,1.6,0,0,1,1.22-.49,1.66,1.66,0,0,1,1.24.49,1.67,1.67,0,0,1,.49,1.24v21.72a5.27,5.27,0,0,0,1.34,3.71,4.42,4.42,0,0,0,3.41,1.44H155a1.48,1.48,0,0,1,1.16.49,1.79,1.79,0,0,1,.44,1.24,1.56,1.56,0,0,1-.53,1.22,2,2,0,0,1-1.33.47Z" transform="translate(129.37 100.51)"/><path class="cls-1" d="M164.55-63.29a2.34,2.34,0,0,1-1.69-.71,2.38,2.38,0,0,1-.71-1.73,2.26,2.26,0,0,1,.73-1.76,2.52,2.52,0,0,1,1.72-.64,2.44,2.44,0,0,1,1.66.64,2.22,2.22,0,0,1,.73,1.76,2.38,2.38,0,0,1-.71,1.73A2.36,2.36,0,0,1,164.55-63.29Zm0,28.91a1.71,1.71,0,0,1-1.27-.47,1.71,1.71,0,0,1-.47-1.26V-56.94a1.71,1.71,0,0,1,.47-1.27,1.71,1.71,0,0,1,1.27-.46,1.67,1.67,0,0,1,1.22.46,1.71,1.71,0,0,1,.46,1.27v20.83a1.7,1.7,0,0,1-.46,1.26A1.67,1.67,0,0,1,164.6-34.38Z" transform="translate(129.37 100.51)"/><path class="cls-1" d="M186-34.16a12.56,12.56,0,0,1-6.35-1.6,11.52,11.52,0,0,1-4.39-4.4,12.5,12.5,0,0,1-1.6-6.34,12.64,12.64,0,0,1,1.6-6.4,11.66,11.66,0,0,1,4.39-4.4A12.66,12.66,0,0,1,186-58.9a12.51,12.51,0,0,1,6.33,1.6,11.78,11.78,0,0,1,4.38,4.4,13.08,13.08,0,0,1,1.64,6.4,12.41,12.41,0,0,1-1.62,6.34,11.76,11.76,0,0,1-4.4,4.4A12.41,12.41,0,0,1,186-34.16Zm0-3.11a8.94,8.94,0,0,0,4.62-1.2,8.48,8.48,0,0,0,3.2-3.28A9.68,9.68,0,0,0,195-46.5a9.8,9.8,0,0,0-1.16-4.78,8.49,8.49,0,0,0-3.2-3.31,8.94,8.94,0,0,0-4.62-1.2,8.93,8.93,0,0,0-4.61,1.2,8.68,8.68,0,0,0-3.22,3.31A9.6,9.6,0,0,0,177-46.5a9.48,9.48,0,0,0,1.18,4.75,8.67,8.67,0,0,0,3.22,3.28A8.93,8.93,0,0,0,186-37.27Z" transform="translate(129.37 100.51)"/><path class="cls-1" d="M206.78-34.38a1.71,1.71,0,0,1-1.26-.47,1.66,1.66,0,0,1-.47-1.22V-56.94a1.71,1.71,0,0,1,.47-1.27,1.7,1.7,0,0,1,1.26-.46,1.68,1.68,0,0,1,1.23.46,1.71,1.71,0,0,1,.46,1.27v20.87a1.65,1.65,0,0,1-.46,1.22A1.68,1.68,0,0,1,206.78-34.38Zm19.1,0a1.66,1.66,0,0,1-1.24-.49,1.61,1.61,0,0,1-.49-1.2V-47.62a8.77,8.77,0,0,0-1.05-4.52,6.59,6.59,0,0,0-2.84-2.67,9.07,9.07,0,0,0-4.06-.89,8.85,8.85,0,0,0-3.93.85,7,7,0,0,0-2.78,2.3,5.71,5.71,0,0,0-1,3.34H206a9.58,9.58,0,0,1,1.51-5,10,10,0,0,1,3.78-3.46,10.78,10.78,0,0,1,5.24-1.27,11.93,11.93,0,0,1,5.63,1.31,9.64,9.64,0,0,1,3.94,3.84,12.32,12.32,0,0,1,1.44,6.17v11.55a1.65,1.65,0,0,1-.49,1.2A1.63,1.63,0,0,1,225.88-34.38Z" transform="translate(129.37 100.51)"/><path class="cls-1" d="M259.19-34.16a12.33,12.33,0,0,1-6.31-1.62,11.94,11.94,0,0,1-4.42-4.42,12.45,12.45,0,0,1-1.62-6.35,12.66,12.66,0,0,1,1.58-6.31,11.77,11.77,0,0,1,4.28-4.41,11.64,11.64,0,0,1,6.13-1.63,11.35,11.35,0,0,1,5.37,1.27,10.78,10.78,0,0,1,3.87,3.35v-13a1.68,1.68,0,0,1,.48-1.27,1.75,1.75,0,0,1,1.25-.47,1.72,1.72,0,0,1,1.24.47,1.65,1.65,0,0,1,.49,1.27v21a12.83,12.83,0,0,1-1.71,6.24,11.83,11.83,0,0,1-4.4,4.37A12.19,12.19,0,0,1,259.19-34.16Zm0-3.11a8.63,8.63,0,0,0,4.59-1.22A8.92,8.92,0,0,0,267-41.8a9.53,9.53,0,0,0,1.18-4.75A9.59,9.59,0,0,0,267-51.28a8.77,8.77,0,0,0-3.2-3.31,8.81,8.81,0,0,0-4.59-1.2,8.87,8.87,0,0,0-4.58,1.2,8.88,8.88,0,0,0-3.24,3.31,9.4,9.4,0,0,0-1.2,4.73,9.34,9.34,0,0,0,1.2,4.75,9,9,0,0,0,3.24,3.31A8.7,8.7,0,0,0,259.19-37.27Z" transform="translate(129.37 100.51)"/><path class="cls-1" d="M290.53-34.16a12.7,12.7,0,0,1-6.37-1.58,11.35,11.35,0,0,1-4.35-4.37,12.8,12.8,0,0,1-1.57-6.39,13.4,13.4,0,0,1,1.48-6.42,11.33,11.33,0,0,1,4.11-4.38,11.42,11.42,0,0,1,6-1.6,11.06,11.06,0,0,1,5.88,1.54,10.29,10.29,0,0,1,3.89,4.24A13.37,13.37,0,0,1,301-46.95a1.47,1.47,0,0,1-.44,1.13,1.57,1.57,0,0,1-1.15.42H280.55v-2.84h19.22l-1.91,1.38a10.16,10.16,0,0,0-.93-4.62,7.59,7.59,0,0,0-2.77-3.2,7.77,7.77,0,0,0-4.29-1.15,8.15,8.15,0,0,0-4.44,1.2,8,8,0,0,0-2.95,3.31,10.65,10.65,0,0,0-1.05,4.82,9.53,9.53,0,0,0,1.18,4.79,8.69,8.69,0,0,0,3.22,3.29,9.1,9.1,0,0,0,4.7,1.2,9.88,9.88,0,0,0,3.22-.56,7.86,7.86,0,0,0,2.6-1.4,1.9,1.9,0,0,1,1.11-.42,1.63,1.63,0,0,1,1.07.33,1.66,1.66,0,0,1,.6,1.16,1.29,1.29,0,0,1-.51,1.06A12.14,12.14,0,0,1,294.89-35,12.69,12.69,0,0,1,290.53-34.16Z" transform="translate(129.37 100.51)"/><path class="cls-1" d="M322-34.38a1.68,1.68,0,0,1-1.25-.49,1.69,1.69,0,0,1-.48-1.24V-67.33a1.71,1.71,0,0,1,.48-1.25,1.72,1.72,0,0,1,1.25-.49h8.88a11.52,11.52,0,0,1,5.81,1.45,10.35,10.35,0,0,1,4,4,11.88,11.88,0,0,1,1.42,5.86A11.57,11.57,0,0,1,340.63-52a10.36,10.36,0,0,1-4,4,11.51,11.51,0,0,1-5.81,1.44h-7.15v10.53a1.7,1.7,0,0,1-.49,1.24A1.67,1.67,0,0,1,322-34.38ZM323.71-50h7.15a8.07,8.07,0,0,0,4-1,7.19,7.19,0,0,0,2.78-2.77,8.21,8.21,0,0,0,1-4,8.32,8.32,0,0,0-1-4.12,7.33,7.33,0,0,0-2.78-2.8,8,8,0,0,0-4-1h-7.15Z" transform="translate(129.37 100.51)"/><path class="cls-1" d="M357.1-34.16a12.7,12.7,0,0,1-6.37-1.58,11.35,11.35,0,0,1-4.35-4.37,12.8,12.8,0,0,1-1.57-6.39,13.4,13.4,0,0,1,1.48-6.42,11.26,11.26,0,0,1,4.11-4.38,11.42,11.42,0,0,1,6-1.6,11.06,11.06,0,0,1,5.88,1.54,10.29,10.29,0,0,1,3.89,4.24,13.37,13.37,0,0,1,1.37,6.17,1.47,1.47,0,0,1-.44,1.13,1.57,1.57,0,0,1-1.15.42H347.12v-2.84h19.22l-1.91,1.38a10.16,10.16,0,0,0-.93-4.62,7.59,7.59,0,0,0-2.77-3.2,7.77,7.77,0,0,0-4.29-1.15,8.15,8.15,0,0,0-4.44,1.2,8.06,8.06,0,0,0-3,3.31,10.78,10.78,0,0,0-1,4.82,9.53,9.53,0,0,0,1.18,4.79,8.69,8.69,0,0,0,3.22,3.29,9.1,9.1,0,0,0,4.7,1.2,9.88,9.88,0,0,0,3.22-.56,7.86,7.86,0,0,0,2.6-1.4A1.9,1.9,0,0,1,364-39.6a1.63,1.63,0,0,1,1.07.33,1.66,1.66,0,0,1,.6,1.16,1.29,1.29,0,0,1-.51,1.06A12.14,12.14,0,0,1,361.46-35,12.69,12.69,0,0,1,357.1-34.16Zm-1.19-28.2a1.65,1.65,0,0,1-1.22-.51,1.64,1.64,0,0,1-.52-1.22,1.72,1.72,0,0,1,.4-1.16l5-5a1.63,1.63,0,0,1,1.2-.49,1.64,1.64,0,0,1,1.24.51,1.73,1.73,0,0,1,.49,1.26,1.66,1.66,0,0,1-.11.62,1.19,1.19,0,0,1-.38.54l-5,5A1.58,1.58,0,0,1,355.91-62.36Z" transform="translate(129.37 100.51)"/><path class="cls-1" d="M375.05-34.38a1.68,1.68,0,0,1-1.25-.45,1.69,1.69,0,0,1-.44-1.24V-57a1.71,1.71,0,0,1,.44-1.24,1.72,1.72,0,0,1,1.25-.44,1.71,1.71,0,0,1,1.24.44,1.67,1.67,0,0,1,.45,1.24v20.92a1.66,1.66,0,0,1-.45,1.24A1.67,1.67,0,0,1,375.05-34.38Zm-.27-15a10.44,10.44,0,0,1,1.44-4.93,9.82,9.82,0,0,1,3.42-3.42,9.16,9.16,0,0,1,4.69-1.24,6.88,6.88,0,0,1,3.15.58,1.41,1.41,0,0,1,.85,1.69,1.3,1.3,0,0,1-.6.88,1.89,1.89,0,0,1-1,.18l-1.35-.09a9.83,9.83,0,0,0-4.42.51,6.64,6.64,0,0,0-3.06,2.25,5.76,5.76,0,0,0-1.13,3.59Z" transform="translate(129.37 100.51)"/><path class="cls-1" d="M396.1-63.29a2.32,2.32,0,0,1-1.69-.71,2.34,2.34,0,0,1-.71-1.73,2.26,2.26,0,0,1,.73-1.76,2.51,2.51,0,0,1,1.71-.64,2.46,2.46,0,0,1,1.67.64,2.22,2.22,0,0,1,.73,1.76,2.38,2.38,0,0,1-.71,1.73A2.36,2.36,0,0,1,396.1-63.29Zm0,28.91a1.71,1.71,0,0,1-1.26-.47,1.71,1.71,0,0,1-.47-1.26V-56.94a1.71,1.71,0,0,1,.47-1.27,1.7,1.7,0,0,1,1.26-.46,1.65,1.65,0,0,1,1.22.46,1.71,1.71,0,0,1,.47,1.27v20.83a1.71,1.71,0,0,1-.47,1.26A1.66,1.66,0,0,1,396.14-34.38Z" transform="translate(129.37 100.51)"/><path class="cls-1" d="M417.59-34.16a12.54,12.54,0,0,1-6.35-1.6,11.55,11.55,0,0,1-4.4-4.4,12.59,12.59,0,0,1-1.59-6.34,12.74,12.74,0,0,1,1.59-6.4,11.69,11.69,0,0,1,4.4-4.4,12.64,12.64,0,0,1,6.35-1.6,12.51,12.51,0,0,1,6.33,1.6,11.68,11.68,0,0,1,4.37,4.4,13.09,13.09,0,0,1,1.65,6.4,12.32,12.32,0,0,1-1.63,6.34,11.74,11.74,0,0,1-4.39,4.4A12.41,12.41,0,0,1,417.59-34.16Zm0-3.11a8.94,8.94,0,0,0,4.62-1.2,8.55,8.55,0,0,0,3.2-3.28,9.79,9.79,0,0,0,1.15-4.75,9.91,9.91,0,0,0-1.15-4.78,8.56,8.56,0,0,0-3.2-3.31,8.94,8.94,0,0,0-4.62-1.2,8.94,8.94,0,0,0-4.62,1.2,8.75,8.75,0,0,0-3.22,3.31,9.7,9.7,0,0,0-1.18,4.78,9.59,9.59,0,0,0,1.18,4.75A8.74,8.74,0,0,0,413-38.47,8.94,8.94,0,0,0,417.59-37.27Z" transform="translate(129.37 100.51)"/><path class="cls-1" d="M447.16-34.12a11.85,11.85,0,0,1-5.64-1.31,9.62,9.62,0,0,1-3.93-3.84,12.27,12.27,0,0,1-1.44-6.17V-57a1.63,1.63,0,0,1,.49-1.2,1.63,1.63,0,0,1,1.2-.48,1.69,1.69,0,0,1,1.24.48,1.63,1.63,0,0,1,.49,1.2v11.55a8.88,8.88,0,0,0,1,4.53,6.67,6.67,0,0,0,2.84,2.66,9,9,0,0,0,4.07.89,9,9,0,0,0,3.93-.84,6.93,6.93,0,0,0,2.77-2.31,5.64,5.64,0,0,0,1-3.33h2.44a10.07,10.07,0,0,1-1.53,5,10,10,0,0,1-3.76,3.46A10.91,10.91,0,0,1,447.16-34.12Zm9.77-.26a1.66,1.66,0,0,1-1.22-.47,1.7,1.7,0,0,1-.46-1.26V-57a1.65,1.65,0,0,1,.46-1.22,1.65,1.65,0,0,1,1.22-.46,1.74,1.74,0,0,1,1.25.46,1.63,1.63,0,0,1,.48,1.22v20.88a1.67,1.67,0,0,1-.48,1.26A1.75,1.75,0,0,1,456.93-34.38Z" transform="translate(129.37 100.51)"/><path class="cls-1" d="M471.9-34.38a5.42,5.42,0,0,1-3.18-1,6.33,6.33,0,0,1-2.17-2.71,9.61,9.61,0,0,1-.78-4V-67.38a1.66,1.66,0,0,1,.47-1.22,1.66,1.66,0,0,1,1.22-.47,1.66,1.66,0,0,1,1.22.47,1.66,1.66,0,0,1,.47,1.22v25.31a5.69,5.69,0,0,0,.77,3.11,2.3,2.3,0,0,0,2,1.2H473a1.32,1.32,0,0,1,1.06.47,1.8,1.8,0,0,1,.41,1.22,1.52,1.52,0,0,1-.56,1.22,2.17,2.17,0,0,1-1.44.47Z" transform="translate(129.37 100.51)"/><path class="cls-1" d="M488.86-34.16a12.7,12.7,0,0,1-6.37-1.58,11.35,11.35,0,0,1-4.35-4.37,12.8,12.8,0,0,1-1.58-6.39,13.4,13.4,0,0,1,1.49-6.42,11.26,11.26,0,0,1,4.11-4.38,11.4,11.4,0,0,1,6-1.6,11.06,11.06,0,0,1,5.88,1.54A10.29,10.29,0,0,1,498-53.12a13.5,13.5,0,0,1,1.37,6.17,1.47,1.47,0,0,1-.44,1.13,1.57,1.57,0,0,1-1.15.42H478.87v-2.84H498.1l-1.91,1.38a10.16,10.16,0,0,0-.93-4.62,7.62,7.62,0,0,0-2.78-3.2,7.74,7.74,0,0,0-4.28-1.15,8.15,8.15,0,0,0-4.44,1.2,8,8,0,0,0-3,3.31,10.78,10.78,0,0,0-1,4.82,9.53,9.53,0,0,0,1.18,4.79,8.69,8.69,0,0,0,3.22,3.29,9.1,9.1,0,0,0,4.7,1.2,9.88,9.88,0,0,0,3.22-.56,7.86,7.86,0,0,0,2.6-1.4,1.9,1.9,0,0,1,1.11-.42,1.63,1.63,0,0,1,1.07.33,1.7,1.7,0,0,1,.6,1.16A1.29,1.29,0,0,1,497-37,12.14,12.14,0,0,1,493.22-35,12.74,12.74,0,0,1,488.86-34.16Z" transform="translate(129.37 100.51)"/></svg>