<svg id="Calque_1" data-name="Calque 1" xmlns="http://www.w3.org/2000/svg" viewBox="0 0 59.85 6.49"><defs><style>.cls-1{fill:#fff;}</style></defs><path class="cls-1" d="M41.33,100.17l-.64-.08-.48-1,0,0h0l-.33-.15-.17-.07-.09,0,0,0,0,0a.63.63,0,0,1-.21-.24c-.07-.1-.13-.22-.22-.33l0,0H39l-.22,0-.09,0c0-.08-.05-.16-.08-.25a1.84,1.84,0,0,0-.11-.36l0-.09-.09,0a.36.36,0,0,0-.11.1l-.17-.46L38,97l-.11.19-.51.83,0,0v0a3.7,3.7,0,0,0,0,.37,2.3,2.3,0,0,1-.28.06l-.09,0,0,0h-.05l-.19.09a4,4,0,0,0-.51.39c-.09-.21-.17-.44-.27-.66l0,0h0a2.28,2.28,0,0,0-.37,0v0a1.22,1.22,0,0,0,0-.17v0l0,0-.8-.56c-.08-.26-.18-.51-.26-.75l0-.1-.09,0-.32.1c-.15-.16-.29-.33-.43-.49L33.25,96l-.12-.14-.06-.06,0-.06L33,95.66l0-.07-.07-.16a3.38,3.38,0,0,1-.11-.34c0-.12-.07-.24-.11-.36l-.08-.18-.09-.17-.1-.16-.08.17-.48,1.11-.3,0h-.07l0,.07c-.05.23-.08.45-.12.66l-.28.1a1.89,1.89,0,0,0-.35.13l-.05,0v0l-.11.54h0l-.07,0h-.16l0,.07-.31.93-.12.05-.07,0v-.06c0-.06,0-.12-.07-.19l0-.09-.09,0-.12.06h0l-.11-.24,0-.06h-.07l-.48.11c-.32-.42-.62-.87-1-1.3l-.09-.12-.07.13-.25.47,0,.06,0,.05,0,0h-.07L27,97,27,97l0,.07-.4.7a2.18,2.18,0,0,0-.93.63l-.43,0H25a.1.1,0,0,0-.05,0l0,0h0v0a.13.13,0,0,0,0,0,.64.64,0,0,1,0,.07c0,.09,0,.17,0,.26l0,.25v.06h0v0l0,.06h0l0,0-.05,0-.1,0-.22.1,0,0v0l-.09.38-.4.13-.05,0v0h0c0,.2,0,.37,0,.54.08-.13.12-.29.19-.41h0l.58.27-.09-.54.07-.32.71.67L25,99.45s0,0,0,0,0,0,0,0l0-.06s0,0,0,0a.13.13,0,0,0,0,0v-.07l0-.25,0-.25h0l.6.95.09-1.11a1.35,1.35,0,0,1,.32-.27,2,2,0,0,1,.49-.24l0,0,0,0,.38-.67h0l.22.73,0-.76,0,0a.21.21,0,0,0,0-.06l0-.07,0-.06.14-.24a2.58,2.58,0,0,1-.11.59c0,.09.11.17.15.25s-.16.36-.25.53c.1.33.23.71.32,1,.11-.2.22-.44.33-.64S28,98,28,97.8l.28-.31.32.42,0,0-.27.47.85-.48.09.18,0,.08.08,0,.09,0V99L30,98.3l.11-.07,0,0v0l.28-.84.4,1.67.76.52-.36-.83.52.16-1-1.61.1-.55.7.42.08-1.2a1.16,1.16,0,0,1,0-.18l.28,0H32l0-.06.41-.93c0,.43,0,1,0,1.41.16.19.34.41.51.6,0,0-.07.11-.11.15s.07.2.09.3l.52.49a6.57,6.57,0,0,1,1.09,0l.79.55a.22.22,0,0,1,0,.09,1,1,0,0,0,0,.16l0,.07h.07a1.81,1.81,0,0,0,.33,0V100l.51-.72h0a7.34,7.34,0,0,1,.59-.46l.16-.07h.08l.08,0a3,3,0,0,0,.38-.09l.07,0v-.08c0-.16,0-.3,0-.43l.38-.61h0c0,.38-.09.91-.13,1.25.17.22.33.46.5.69.14-.3.27-.68.4-1l.12,0,.1,0a4.92,4.92,0,0,0-.1,1l.51-.47.06,0,.05,0,0,0,.08,0,.17.07.26.11-.29.34.64.3.18.39,0,0h0l.65.07.14.32,0-.44v-.08h-.1ZM25.05,98.66ZM33.85,97h.06a2.46,2.46,0,0,0,.29-.09l.21.61c-.18-.12-.4-.26-.51-.35A1,1,0,0,1,33.85,97Z" transform="translate(-23.8 -94.22)"/><path class="cls-1" d="M34.28,98.79c-.3-.05-1-.47-1.24-.55l-.94,1,1-.72c.07.21.19.47.15.56s.22.11.32.16,0,.41-.05.59c.29.28.64.57.93.84,0-.23.06-.5.09-.72-.17-.21-.33-.45-.5-.65Z" transform="translate(-23.8 -94.22)"/><polygon class="cls-1" points="3.93 5.73 4.72 4.94 5.14 6.49 5.14 5.7 5.35 5.9 5.57 5.43 4.61 4.73 3.93 5.73"/><polygon class="cls-1" points="13.43 5.23 12.99 5.92 13.5 5.44 14.18 6.34 14.31 5.82 13.88 5.59 13.43 5.23"/><path class="cls-1" d="M32.64,97.76l-.36,0L32,96.48l.19,1.45Z" transform="translate(-23.8 -94.22)"/><polygon class="cls-1" points="3.01 5.03 2.83 5.03 2.67 4.29 2.72 5.25 3.43 5.48 3.14 5.28 3.01 5.03"/><path class="cls-1" d="M43.36,99.88a1.59,1.59,0,0,1-.5-.08,1.11,1.11,0,0,1-.4-.22,1.15,1.15,0,0,1-.26-.33.15.15,0,0,1,0-.13.19.19,0,0,1,.11-.08.14.14,0,0,1,.11,0,.24.24,0,0,1,.09.08.5.5,0,0,0,.19.22.73.73,0,0,0,.29.15,1.06,1.06,0,0,0,.37.06,1,1,0,0,0,.4-.08.71.71,0,0,0,.27-.21.65.65,0,0,0,.1-.35.61.61,0,0,0-.19-.44,1.11,1.11,0,0,0-.6-.24,1.35,1.35,0,0,1-.77-.3.78.78,0,0,1-.28-.61.72.72,0,0,1,.14-.44.88.88,0,0,1,.38-.3,1.35,1.35,0,0,1,.55-.1,1.16,1.16,0,0,1,.42.07,1.08,1.08,0,0,1,.33.2,1.1,1.1,0,0,1,.23.26.17.17,0,0,1,0,.13.14.14,0,0,1-.07.1.2.2,0,0,1-.13,0,.16.16,0,0,1-.1-.08,1,1,0,0,0-.16-.19.73.73,0,0,0-.23-.13.81.81,0,0,0-.33-.06.92.92,0,0,0-.53.14.46.46,0,0,0-.2.41.5.5,0,0,0,.07.27.57.57,0,0,0,.25.2,1.39,1.39,0,0,0,.47.13,1.35,1.35,0,0,1,.79.33.84.84,0,0,1,.25.64,1,1,0,0,1-.08.4.86.86,0,0,1-.23.3,1.31,1.31,0,0,1-.35.19A1.54,1.54,0,0,1,43.36,99.88Z" transform="translate(-23.8 -94.22)"/><path class="cls-1" d="M45,97.9a.21.21,0,0,1-.11,0,.18.18,0,0,1,0-.1.18.18,0,0,1,0-.11.21.21,0,0,1,.11,0H46a.18.18,0,0,1,.1,0,.14.14,0,0,1,0,.11.13.13,0,0,1,0,.1.18.18,0,0,1-.1,0Zm1,1.94a.77.77,0,0,1-.4-.11.69.69,0,0,1-.27-.29.82.82,0,0,1-.11-.42V97a.17.17,0,0,1,.05-.12.16.16,0,0,1,.11,0,.17.17,0,0,1,.17.17V99a.46.46,0,0,0,.13.35.39.39,0,0,0,.32.14h.11a.13.13,0,0,1,.11,0,.17.17,0,0,1,.05.12.16.16,0,0,1-.05.11.21.21,0,0,1-.13,0Z" transform="translate(-23.8 -94.22)"/><path class="cls-1" d="M47.81,99.86a1,1,0,0,1-.58-.16,1.1,1.1,0,0,1-.41-.42,1.16,1.16,0,0,1-.15-.6,1.12,1.12,0,0,1,.16-.6,1.06,1.06,0,0,1,.42-.42,1.26,1.26,0,0,1,1.19,0,1.06,1.06,0,0,1,.42.42,1.34,1.34,0,0,1,.16.6l-.13.11a1.09,1.09,0,0,1-.14.54,1.21,1.21,0,0,1-.39.39A1.1,1.1,0,0,1,47.81,99.86Zm0-.3a.9.9,0,0,0,.44-.11.87.87,0,0,0,.31-.32.94.94,0,0,0,.11-.45,1,1,0,0,0-.11-.45.92.92,0,0,0-.31-.31.81.81,0,0,0-.44-.12.8.8,0,0,0-.43.12.92.92,0,0,0-.31.31,1,1,0,0,0-.11.45.94.94,0,0,0,.11.45.87.87,0,0,0,.31.32A.89.89,0,0,0,47.84,99.56Zm1,.28a.21.21,0,0,1-.12,0,.15.15,0,0,1,0-.11V99l.08-.34.25.06v1a.16.16,0,0,1-.05.11A.17.17,0,0,1,48.85,99.84Z" transform="translate(-23.8 -94.22)"/><path class="cls-1" d="M49.5,97.9a.18.18,0,0,1-.1,0,.14.14,0,0,1,0-.1.14.14,0,0,1,0-.11.18.18,0,0,1,.1,0h1.08a.15.15,0,0,1,.1,0,.14.14,0,0,1,0,.11.14.14,0,0,1,0,.1.15.15,0,0,1-.1,0Zm1,1.94a.77.77,0,0,1-.4-.11.84.84,0,0,1-.27-.29.82.82,0,0,1-.1-.42V97a.16.16,0,0,1,0-.12.17.17,0,0,1,.12,0,.18.18,0,0,1,.12,0,.16.16,0,0,1,0,.12V99a.46.46,0,0,0,.13.35.39.39,0,0,0,.32.14h.12a.16.16,0,0,1,.1.28.21.21,0,0,1-.13,0Z" transform="translate(-23.8 -94.22)"/><path class="cls-1" d="M51.57,97.09a.21.21,0,0,1-.16-.07.23.23,0,0,1-.06-.16.21.21,0,0,1,.07-.17.23.23,0,0,1,.16-.06.25.25,0,0,1,.16.06.24.24,0,0,1,.07.17.24.24,0,0,1-.07.16A.22.22,0,0,1,51.57,97.09Zm0,2.75a.17.17,0,0,1-.17-.17v-2a.17.17,0,0,1,.05-.12.16.16,0,0,1,.12,0,.12.12,0,0,1,.11,0,.17.17,0,0,1,.05.12v2a.17.17,0,0,1-.05.12A.13.13,0,0,1,51.58,99.84Z" transform="translate(-23.8 -94.22)"/><path class="cls-1" d="M53.62,99.86a1.23,1.23,0,0,1-.61-.15,1.18,1.18,0,0,1-.41-.42,1.13,1.13,0,0,1-.16-.61,1.19,1.19,0,0,1,.57-1,1.3,1.3,0,0,1,1.21,0,1.1,1.1,0,0,1,.41.42,1.19,1.19,0,0,1,.16.6,1.23,1.23,0,0,1-.15.61,1.3,1.3,0,0,1-.42.42A1.21,1.21,0,0,1,53.62,99.86Zm0-.3a.93.93,0,0,0,.44-.11.89.89,0,0,0,.3-.31,1,1,0,0,0,.11-.46,1,1,0,0,0-.11-.45.81.81,0,0,0-.3-.31.83.83,0,0,0-.44-.12.81.81,0,0,0-.44.12.84.84,0,0,0-.31.31,1,1,0,0,0-.11.45,1,1,0,0,0,.11.46.92.92,0,0,0,.31.31A.9.9,0,0,0,53.62,99.56Z" transform="translate(-23.8 -94.22)"/><path class="cls-1" d="M55.59,99.84a.17.17,0,0,1-.12,0,.16.16,0,0,1,0-.11v-2a.17.17,0,0,1,0-.12.16.16,0,0,1,.12,0,.15.15,0,0,1,.11,0,.17.17,0,0,1,0,.12v2a.17.17,0,0,1-.16.16Zm1.81,0a.17.17,0,0,1-.12,0,.15.15,0,0,1,0-.11v-1.1a.91.91,0,0,0-.1-.43.65.65,0,0,0-.27-.25.83.83,0,0,0-.39-.09.87.87,0,0,0-.37.08.84.84,0,0,0-.27.22.57.57,0,0,0-.09.32h-.23a.87.87,0,0,1,.14-.48,1,1,0,0,1,.36-.33,1,1,0,0,1,.5-.12,1.15,1.15,0,0,1,.53.13.86.86,0,0,1,.37.36,1.1,1.1,0,0,1,.14.59v1.1a.15.15,0,0,1,0,.11A.18.18,0,0,1,57.4,99.84Z" transform="translate(-23.8 -94.22)"/><path class="cls-1" d="M60.57,99.86a1.08,1.08,0,0,1-.6-.16,1.06,1.06,0,0,1-.42-.42,1.08,1.08,0,0,1-.16-.6,1.21,1.21,0,0,1,.15-.6,1.1,1.1,0,0,1,.41-.42,1.14,1.14,0,0,1,.58-.15,1.07,1.07,0,0,1,.51.12,1,1,0,0,1,.37.32V96.71a.17.17,0,0,1,.05-.12.16.16,0,0,1,.11,0,.17.17,0,0,1,.17.17v2a1.17,1.17,0,0,1-.58,1A1.18,1.18,0,0,1,60.57,99.86Zm0-.3a.89.89,0,0,0,.43-.11,1,1,0,0,0,.31-.32,1,1,0,0,0,0-.9.84.84,0,0,0-.31-.31.8.8,0,0,0-.43-.12.87.87,0,0,0-.75.43,1,1,0,0,0,0,.9,1,1,0,0,0,.31.32A.93.93,0,0,0,60.57,99.56Z" transform="translate(-23.8 -94.22)"/><path class="cls-1" d="M63.5,99.86a1.12,1.12,0,0,1-.53-.12,1,1,0,0,1-.38-.37,1.16,1.16,0,0,1-.13-.58v-1.1a.14.14,0,0,1,0-.11.13.13,0,0,1,.12,0,.13.13,0,0,1,.11,0,.12.12,0,0,1,.05.11v1.1a.83.83,0,0,0,.1.43.72.72,0,0,0,.27.25.8.8,0,0,0,.39.08.77.77,0,0,0,.37-.08.56.56,0,0,0,.26-.22.48.48,0,0,0,.1-.31h.23a.93.93,0,0,1-.14.47,1,1,0,0,1-.36.33A1,1,0,0,1,63.5,99.86Zm.93,0a.13.13,0,0,1-.11,0,.17.17,0,0,1,0-.12v-2a.17.17,0,0,1,0-.12.12.12,0,0,1,.11,0,.16.16,0,0,1,.12,0,.17.17,0,0,1,0,.12v2a.17.17,0,0,1-.17.17Z" transform="translate(-23.8 -94.22)"/><path class="cls-1" d="M66.8,99.84a.17.17,0,0,1-.17-.17v-3a.17.17,0,0,1,.17-.17h.84a1.1,1.1,0,0,1,.55.14,1,1,0,0,1,.38.38,1.15,1.15,0,0,1,0,1.1,1.06,1.06,0,0,1-.38.38,1.09,1.09,0,0,1-.55.13H67v1a.16.16,0,0,1,0,.12A.17.17,0,0,1,66.8,99.84ZM67,98.36h.68a.84.84,0,0,0,.39-.1.65.65,0,0,0,.26-.26.83.83,0,0,0,.09-.39.8.8,0,0,0-.09-.39A.65.65,0,0,0,68,97a.73.73,0,0,0-.39-.1H67Z" transform="translate(-23.8 -94.22)"/><path class="cls-1" d="M70.14,99.86a1.23,1.23,0,0,1-.61-.15,1,1,0,0,1-.41-.42,1.2,1.2,0,0,1-.15-.61,1.16,1.16,0,0,1,.14-.6,1,1,0,0,1,.39-.42,1.08,1.08,0,0,1,.57-.15,1.11,1.11,0,0,1,.56.14,1,1,0,0,1,.37.41,1.21,1.21,0,0,1,.13.58.14.14,0,0,1,0,.11.15.15,0,0,1-.11,0H69.19v-.27H71l-.18.13a.91.91,0,0,0-.09-.44.7.7,0,0,0-.26-.3.76.76,0,0,0-.41-.11.82.82,0,0,0-.42.11.8.8,0,0,0-.28.32.93.93,0,0,0-.1.45,1,1,0,0,0,.11.46.87.87,0,0,0,.76.43.8.8,0,0,0,.3-.06.73.73,0,0,0,.25-.13.18.18,0,0,1,.1,0,.2.2,0,0,1,.11,0,.18.18,0,0,1,0,.11.1.1,0,0,1,0,.1,1.07,1.07,0,0,1-.35.2A1.24,1.24,0,0,1,70.14,99.86ZM70,97.18a.16.16,0,0,1-.11-.05.13.13,0,0,1,0-.12.15.15,0,0,1,0-.11l.47-.47a.17.17,0,0,1,.12-.05.16.16,0,0,1,.11.05.13.13,0,0,1,.05.12.13.13,0,0,1,0,.06.1.1,0,0,1,0,0l-.47.48A.18.18,0,0,1,70,97.18Z" transform="translate(-23.8 -94.22)"/><path class="cls-1" d="M71.84,99.84a.17.17,0,0,1-.12,0,.12.12,0,0,1,0-.11v-2a.16.16,0,1,1,.32,0v2a.12.12,0,0,1,0,.11A.17.17,0,0,1,71.84,99.84Zm0-1.43A.88.88,0,0,1,72,98a1,1,0,0,1,.33-.33.83.83,0,0,1,.44-.12.61.61,0,0,1,.3.06.13.13,0,0,1,.08.16.12.12,0,0,1,0,.08.16.16,0,0,1-.1,0h-.13a.94.94,0,0,0-.42,0,.7.7,0,0,0-.29.21.58.58,0,0,0-.11.34Z" transform="translate(-23.8 -94.22)"/><path class="cls-1" d="M73.84,97.09a.21.21,0,0,1-.16-.07.24.24,0,0,1-.07-.16.24.24,0,0,1,.07-.17.25.25,0,0,1,.16-.06.23.23,0,0,1,.16.06.21.21,0,0,1,.07.17A.23.23,0,0,1,74,97,.22.22,0,0,1,73.84,97.09Zm0,2.75a.17.17,0,0,1-.12,0,.16.16,0,0,1,0-.12v-2a.17.17,0,0,1,.28-.12.17.17,0,0,1,.05.12v2a.17.17,0,0,1-.17.17Z" transform="translate(-23.8 -94.22)"/><path class="cls-1" d="M75.88,99.86a1.21,1.21,0,0,1-.6-.15,1.13,1.13,0,0,1-.42-.42,1.23,1.23,0,0,1-.15-.61,1.19,1.19,0,0,1,.15-.6,1.06,1.06,0,0,1,.42-.42,1.21,1.21,0,0,1,.6-.15,1.16,1.16,0,0,1,.6.15,1.06,1.06,0,0,1,.42.42,1.3,1.3,0,0,1,.16.6,1.23,1.23,0,0,1-.16.61,1.13,1.13,0,0,1-.42.42A1.16,1.16,0,0,1,75.88,99.86Zm0-.3a.9.9,0,0,0,.44-.11.92.92,0,0,0,.31-.31,1,1,0,0,0,.1-.46,1,1,0,0,0-.1-.45.84.84,0,0,0-.31-.31.81.81,0,0,0-.44-.12.83.83,0,0,0-.44.12.75.75,0,0,0-.3.31.86.86,0,0,0-.11.45.9.9,0,0,0,.11.46.81.81,0,0,0,.3.31A.93.93,0,0,0,75.88,99.56Z" transform="translate(-23.8 -94.22)"/><path class="cls-1" d="M78.69,99.86a1.12,1.12,0,0,1-.53-.12,1,1,0,0,1-.38-.37,1.16,1.16,0,0,1-.13-.58v-1.1a.14.14,0,0,1,0-.11.13.13,0,0,1,.12,0,.13.13,0,0,1,.11,0,.12.12,0,0,1,0,.11v1.1a.83.83,0,0,0,.1.43.72.72,0,0,0,.27.25.8.8,0,0,0,.39.08.77.77,0,0,0,.37-.08.56.56,0,0,0,.26-.22.48.48,0,0,0,.1-.31h.23a.93.93,0,0,1-.14.47,1,1,0,0,1-.36.33A1,1,0,0,1,78.69,99.86Zm.93,0a.13.13,0,0,1-.11,0,.17.17,0,0,1-.05-.12v-2a.17.17,0,0,1,.05-.12.12.12,0,0,1,.11,0,.16.16,0,0,1,.12,0,.17.17,0,0,1,.05.12v2a.17.17,0,0,1-.17.17Z" transform="translate(-23.8 -94.22)"/><path class="cls-1" d="M81,99.84a.47.47,0,0,1-.3-.1.58.58,0,0,1-.21-.25,1.12,1.12,0,0,1-.07-.38V96.7a.18.18,0,0,1,0-.11.17.17,0,0,1,.24,0,.14.14,0,0,1,0,.11v2.41a.5.5,0,0,0,.08.29.2.2,0,0,0,.18.12h.11a.13.13,0,0,1,.1,0,.17.17,0,0,1,0,.23.24.24,0,0,1-.14,0Z" transform="translate(-23.8 -94.22)"/><path class="cls-1" d="M82.65,99.86a1.21,1.21,0,0,1-.6-.15,1,1,0,0,1-.41-.42,1.2,1.2,0,0,1-.15-.61,1.16,1.16,0,0,1,.14-.6,1,1,0,0,1,.39-.42,1.05,1.05,0,0,1,.57-.15,1.11,1.11,0,0,1,.56.14,1,1,0,0,1,.37.41,1.21,1.21,0,0,1,.13.58.14.14,0,0,1,0,.11.15.15,0,0,1-.11,0H81.71v-.27h1.82l-.18.13a1,1,0,0,0-.09-.44.7.7,0,0,0-.26-.3.78.78,0,0,0-.41-.11.82.82,0,0,0-.42.11.8.8,0,0,0-.28.32.93.93,0,0,0-.1.45,1,1,0,0,0,.11.46.87.87,0,0,0,.75.43.81.81,0,0,0,.31-.06.73.73,0,0,0,.25-.13.18.18,0,0,1,.1,0,.15.15,0,0,1,.1,0,.15.15,0,0,1,.06.11.1.1,0,0,1,0,.1,1.07,1.07,0,0,1-.35.2A1.3,1.3,0,0,1,82.65,99.86Z" transform="translate(-23.8 -94.22)"/></svg>